<?xml version="1.0" encoding="UTF-8" standalone="no"?>
<svg
   version="1.1"
   id="Layer_1"
   x="0px"
   y="0px"
   width="100%"
   viewBox="0 0 1024 1024"
   enable-background="new 0 0 1024 1024"
   xml:space="preserve"
   sodipodi:docname="logo.svg"
   inkscape:export-filename="logo.svg"
   inkscape:export-xdpi="48"
   inkscape:export-ydpi="48"
   inkscape:version="1.3.2 (091e20e, 2023-11-25, custom)"
   xmlns:inkscape="http://www.inkscape.org/namespaces/inkscape"
   xmlns:sodipodi="http://sodipodi.sourceforge.net/DTD/sodipodi-0.dtd"
   xmlns="http://www.w3.org/2000/svg"
   xmlns:svg="http://www.w3.org/2000/svg"><defs
   id="defs3" /><sodipodi:namedview
   id="namedview3"
   pagecolor="#ffffff"
   bordercolor="#000000"
   borderopacity="0.25"
   inkscape:showpageshadow="2"
   inkscape:pageopacity="0.0"
   inkscape:pagecheckerboard="0"
   inkscape:deskcolor="#d1d1d1"
   inkscape:zoom="0.5"
   inkscape:cx="512"
   inkscape:cy="511"
   inkscape:window-width="1920"
   inkscape:window-height="1057"
   inkscape:window-x="-8"
   inkscape:window-y="-8"
   inkscape:window-maximized="1"
   inkscape:current-layer="Layer_1" />
<path
   fill="#000000"
   opacity="1"
   stroke="none"
   d="m 332.6457,731.5315 c -0.008,-53.08918 -0.0369,-105.04856 -0.008,-157.00782 0.009,-15.87346 1.76052,-17.62136 17.41391,-17.64605 28.9917,-0.0455 57.98829,0.30483 86.97426,-0.11007 58.92272,-0.84319 93.93089,-51.69656 71.77356,-105.83234 -6.72546,-16.4321 -17.38846,-29.31032 -29.68633,-41.9073 C 451.8549,381.1068 417.3988,362.43445 388.76201,336.42848 350.48535,301.66817 317.66915,263.06543 299.59992,213.49768 277.34727,152.45409 273.34815,91.12173 295.17575,29.20501 298.22354,20.5595 303.48704,12.69518 307.901,4.12747 c 7.09471,2.83703 7.56445,8.73862 8.6653,13.35141 12.50408,52.3956 49.85569,80.94184 95.97674,101.67493 40.59547,18.24917 83.61473,29.52778 125.24643,44.7555 69.86959,25.55638 135.70902,58.42988 186.97956,114.03839 37.32375,40.48189 60.30827,88.03476 66.33172,143.86162 6.91767,64.11387 -8.5315,122.19298 -45.73566,173.54643 -45.31124,62.5439 -108.91503,96.39295 -184.77,107.51775 -18.50332,2.71358 -36.84346,7.42238 -55.79589,6.54236 -5.72233,-0.2658 -8.06653,2.58806 -8.04308,8.23646 0.12656,30.49678 0.0783,60.99438 0.19787,91.49118 0.0166,4.2266 0.84664,8.7191 5.02901,10.71 8.70034,4.1418 6.3956,9.8321 2.61337,15.6524 -9.82291,15.1159 -19.7141,30.1899 -29.77819,45.146 -21.84691,32.466 -35.07459,68.8174 -47.8642,105.3864 -4.18057,11.9534 -8.54329,23.843 -12.82967,35.7812 -5.80523,-1.4705 -5.45626,-5.988 -6.38566,-9.2379 -12.77663,-44.6761 -30.85277,-87.1611 -53.53846,-127.618 -6.40138,-11.4161 -14.88682,-21.7044 -22.80962,-32.2136 -6.39815,-8.4869 -8.9851,-17.1189 -4.20361,-27.2672 4.73879,-10.0576 5.87227,-20.7166 5.61413,-31.8293 -0.47195,-20.3209 -0.1469,-40.6604 -0.15539,-62.122 M 543.83623,395.40085 c -18.78332,-26.2939 -41.75205,-48.42041 -67.91258,-67.19704 -44.29797,-31.79486 -85.43884,-66.69952 -115.65801,-112.93361 -10.23258,-15.65559 -20.6935,-31.12601 -27.97119,-48.54434 6.21835,15.78422 9.98499,32.35991 18.92664,47.03424 26.66295,43.75734 62.13596,78.99035 102.73909,109.73622 30.54146,23.12708 62.02369,45.41014 84.35579,77.57839 23.96826,34.52499 35.65805,70.50188 17.5684,112.01834 -20.90889,47.98578 -69.14006,81.02984 -121.31428,81.28695 -15.81871,0.0779 -31.66941,0.62484 -47.44687,-0.1847 -11.29061,-0.57932 -14.95731,3.05414 -14.8762,14.64186 0.48787,69.6762 1.80514,139.40814 -0.45332,209.01444 -1.04706,32.2692 18.69663,52.6155 31.80127,77.2925 1.43693,-24.4431 2.08998,-48.5211 -0.13828,-72.5451 -0.93126,-10.0405 3.43863,-13.2576 13.13906,-12.8348 8.55978,0.373 15.79153,-0.109 14.84765,12.1584 -1.21058,15.733 0.68663,31.4244 2.93944,47.147 2.15605,-7.226 5.92407,-12.6507 11.55799,-17.7031 9.4396,-8.4651 9.6116,-18.7204 1.33948,-28.9117 -4.58307,-5.6463 -6.26607,-11.5637 -6.22414,-18.6862 0.29518,-50.0916 0.42366,-100.18446 0.46311,-150.27705 0.0209,-26.58143 -0.20655,-25.60031 26.54799,-22.90314 42.09206,4.2434 83.23671,3.4707 123.38466,-15.13593 54.80387,-25.39892 90.60606,-64.6332 106.14973,-123.48922 12.07062,-45.70546 4.675,-88.98561 -13.03257,-130.80657 -11.6393,-27.48896 -30.80057,-50.62032 -52.85431,-71.06368 C 594.81615,255.88865 551.94703,231.0547 506.32386,210.84383 465.02037,192.54658 423.71405,174.35155 384.64385,151.52248 356.27258,134.94493 332.4288,114.42695 323.61377,80.91812 c -0.34718,-1.31997 -0.44656,-3.20366 -1.79162,-2.88986 -7.50162,26.56625 4.06905,49.67188 12.34242,73.24463 11.37467,32.40901 31.19946,59.88619 51.99035,86.72114 25.17664,32.49584 56.87426,57.90359 89.86522,81.73945 26.13659,18.88339 49.21111,40.80258 68.90646,66.22088 3.98326,5.14067 9.3758,10.38079 8.58695,18.61953 -4.86011,-1.41031 -6.2949,-5.18791 -9.67732,-9.17304 z"
   id="path1"
   style="stroke-width:2.25991" />
<path
   fill="#000000"
   opacity="1"
   stroke="none"
   d="m 639.86807,542.97704 c -48.94939,69.03702 -133.19462,84.91365 -185.65167,71.47155 4.46631,-4.30092 9.96933,-4.03595 14.6573,-5.24039 34.13753,-8.7711 65.15596,-23.17474 89.99749,-48.95243 33.99512,-35.27611 44.23701,-77.01051 35.33363,-124.74683 -8.79661,-47.16342 -30.1691,-87.86331 -60.18137,-124.60159 -5.55143,-6.79568 -12.34952,-12.05725 -19.32843,-17.22184 -4.70811,-3.48395 -10.13555,-6.31215 -13.52728,-11.98173 23.83027,-1.29023 116.86783,72.54303 147.76178,115.75505 -3.60988,-8.2837 -7.21975,-16.56748 -10.77859,-24.73422 2.9002,-1.45617 4.31734,-0.60484 4.91638,0.68809 13.52307,29.17921 31.17657,56.31059 24.13076,92.0743 -5.38026,27.30972 -10.45086,53.77598 -27.33,77.49004 z"
   id="path2"
   style="stroke-width:2.25991" />
<path
   fill="#000000"
   opacity="1"
   stroke="none"
   d="m 577.05643,469.08267 c -5.53005,-4.78342 -4.15692,-10.595 -4.02754,-19.09775 5.16591,7.45334 8.02253,12.50304 4.02754,19.09775 z"
   id="path3"
   style="stroke-width:2.25991" />
</svg>
