<svg xmlns="http://www.w3.org/2000/svg" xmlns:xlink="http://www.w3.org/1999/xlink" width="1080" zoomAndPan="magnify" viewBox="0 0 810 810" height="1080" preserveAspectRatio="xMidYMid meet" xmlns:v="https://vecta.io/nano"><path d="M57.23 514.094v-33.348c0-3.371.375-3.742 3.699-3.746l18.473-.023c12.516-.18 19.953-10.98 15.246-22.48-1.43-3.492-3.695-6.227-6.305-8.902-5.793-5.93-13.109-9.895-19.191-15.418-8.133-7.383-15.102-15.586-18.941-26.113-4.723-12.965-5.574-25.992-.937-39.145.648-1.836 1.766-3.504 2.703-5.324 1.508.602 1.605 1.855 1.84 2.836 2.656 11.129 10.59 17.191 20.387 21.594 8.621 3.879 17.758 6.273 26.602 9.508 14.84 5.43 28.824 12.41 39.715 24.223 7.93 8.598 12.809 18.699 14.09 30.555 1.469 13.617-1.812 25.953-9.715 36.863-9.625 13.285-23.133 20.473-39.246 22.836-3.93.578-7.824 1.578-11.852 1.391-1.215-.059-1.711.551-1.707 1.75l.043 19.43c.004.898.18 1.855 1.066 2.277 1.848.879 1.359 2.086.555 3.324l-6.324 9.59c-4.641 6.895-7.449 14.617-10.168 22.383l-2.723 7.602c-1.234-.312-1.16-1.273-1.355-1.965-2.715-9.488-6.555-18.512-11.375-27.105-1.359-2.426-3.16-4.609-4.844-6.84-1.359-1.805-1.906-3.637-.891-5.793 1.004-2.137 1.246-4.402 1.191-6.762-.102-4.316-.031-8.637-.035-13.195m44.859-71.395c-3.992-5.586-8.867-10.285-14.426-14.273-9.41-6.75-18.148-14.164-24.566-23.984-2.172-3.328-4.395-6.613-5.941-10.312 1.32 3.352 2.121 6.875 4.02 9.992 5.664 9.293 13.199 16.777 21.824 23.305 6.488 4.914 13.172 9.648 17.918 16.48 5.09 7.332 7.574 14.973 3.73 23.793-4.441 10.191-14.687 17.211-25.77 17.266-3.359.016-6.727.133-10.074-.039-2.398-.125-3.18.648-3.16 3.109l-.098 44.395c-.223 6.855 3.973 11.176 6.754 16.418.305-5.191.445-10.309-.027-15.41-.199-2.133.73-2.816 2.789-2.727 1.82.082 3.355-.023 3.152 2.582-.254 3.344.148 6.676.625 10.016.461-1.535 1.258-2.687 2.457-3.762 2.004-1.797 2.039-3.977.285-6.141-.977-1.199-1.332-2.453-1.324-3.969l.098-31.918c.004-5.645-.043-5.437 5.641-4.863 8.941.898 17.68.734 26.207-3.215 11.641-5.398 19.246-13.73 22.547-26.23 2.563-9.707.992-18.902-2.77-27.785-2.473-5.84-6.543-10.75-11.227-15.094-7.836-7.266-16.941-12.539-26.633-16.832-8.773-3.887-17.547-7.75-25.844-12.602-6.027-3.52-11.09-7.879-12.965-14.996-.074-.281-.094-.68-.379-.613-1.594 5.645.863 10.551 2.621 15.559 2.414 6.883 6.625 12.719 11.043 18.418 5.348 6.902 12.078 12.301 19.086 17.363 5.555 4.012 10.453 8.664 14.637 14.066.848 1.09 1.992 2.203 1.824 3.953-1.031-.301-1.336-1.102-2.055-1.949zm20.398 31.345c-10.398 14.664-28.293 18.035-39.434 15.18.949-.914 2.117-.859 3.113-1.113 7.25-1.863 13.84-4.922 19.113-10.398 7.223-7.492 9.398-16.355 7.508-26.496-1.871-10.016-6.41-18.66-12.785-26.465-1.18-1.445-2.621-2.562-4.105-3.66-1-.738-2.152-1.34-2.871-2.543 5.063-.273 24.82 15.406 31.383 24.586l-2.289-5.254c.617-.309.918-.129 1.047.148 2.871 6.195 6.621 11.961 5.125 19.555-1.145 5.801-2.223 11.422-5.805 16.461zm-13.343-15.695c-1.176-1.016-.883-2.25-.855-4.059 1.098 1.586 1.703 2.656.855 4.059zm0 0"/><use xlink:href="#B"/><path d="M235.71 576.368V447.524h51.594v24.891H261.96v25.047h24.297v24.313H261.96v29.547h27v25.047zm61.8 0V447.524h39.297l10.797 78.594 10.797-78.594h39.609v128.844h-23.547v-92.844l-14.859 92.844H336.51l-15.75-92.844v92.844zm0 0"/><use xlink:href="#B" x="246.6"/><path d="M482.31 576.368V447.524h26.547l11.844 61.641v-61.641h24.906v128.844h-25.203l-12.891-64.5v64.5zm101.247 1.203c-9.305 0-16.23-3.273-20.781-9.828-4.543-6.551-6.812-16.477-6.812-29.781v-55.5c0-11.895 2.645-20.891 7.938-26.984 5.301-6.102 13.203-9.156 23.703-9.156 8.5 0 15.098 1.703 19.797 5.109 4.707 3.398 7.957 8.344 9.75 14.844 1.801 6.5 2.703 14.852 2.703 25.047h-25.203v-11.547c0-3.102-.43-5.504-1.281-7.203-.844-1.695-2.367-2.547-4.562-2.547-4.898 0-7.344 3.199-7.344 9.594v62.406c0 3.898.5 6.844 1.5 8.844s2.75 3 5.25 3 4.25-1 5.25-3 1.5-4.945 1.5-8.844v-18.453h-6.906v-22.203h31.5v75h-10.344l-4.359-10.797c-4.594 8-11.695 12-21.297 12zm46.203-1.203V447.524h51.594v24.891H656.01v25.047h24.297v24.313H656.01v29.547h27v25.047zm61.8-128.844h39.594c6.301 0 11.176 1.43 14.625 4.281 3.445 2.844 5.77 6.844 6.969 12 1.207 5.148 1.813 11.719 1.813 19.719 0 7.293-.953 12.992-2.859 17.094-1.898 4.105-5.195 6.953-9.891 8.547 3.895.805 6.719 2.758 8.469 5.859 1.75 3.094 2.625 7.293 2.625 12.594l-.297 48.75h-25.203v-50.406c0-3.594-.703-5.891-2.109-6.891-1.398-1-3.945-1.5-7.641-1.5v58.797H691.56zm32.391 47.688c3.602 0 5.406-3.895 5.406-11.687 0-3.406-.152-5.957-.453-7.656s-.855-2.867-1.656-3.516c-.793-.656-1.937-.984-3.437-.984h-6v23.844zm0 0"/><defs ><path id="B" d="M193.56 577.571c-10.406 0-18.309-3.172-23.703-9.516-5.398-6.352-8.094-15.281-8.094-26.781v-61.359c0-11.094 2.695-19.461 8.094-25.109 5.395-5.656 13.297-8.484 23.703-8.484 10.395 0 18.289 2.828 23.688 8.484 5.406 5.648 8.109 14.016 8.109 25.109v61.359c0 11.594-2.703 20.543-8.109 26.844-5.398 6.305-13.293 9.453-23.687 9.453zm0-23.703c2.301 0 3.848-1 4.641-3 .801-2 1.203-4.801 1.203-8.406v-63c0-2.789-.375-5.062-1.125-6.812s-2.277-2.625-4.578-2.625c-4.293 0-6.437 3.25-6.437 9.75v62.844c0 3.699.445 6.5 1.344 8.406.895 1.898 2.547 2.844 4.953 2.844zm0 0"/></defs></svg>